<svg width="27" height="27" viewBox="0 0 27 27" fill="none" xmlns="http://www.w3.org/2000/svg">
<path d="M17.3771 7.24673L20.8222 10.7709C20.9674 10.9193 20.9674 11.1616 20.8222 11.31L12.4806 19.8429L8.93611 20.2454C8.4625 20.3001 8.06146 19.8898 8.11493 19.4054L8.50833 15.7796L16.85 7.24673C16.9951 7.09826 17.2319 7.09826 17.3771 7.24673ZM23.5646 6.35202L21.7007 4.4454C21.1201 3.85153 20.1767 3.85153 19.5924 4.4454L18.2403 5.82848C18.0951 5.97695 18.0951 6.21918 18.2403 6.36765L21.6854 9.89178C21.8306 10.0402 22.0674 10.0402 22.2125 9.89178L23.5646 8.50869C24.1451 7.91092 24.1451 6.94589 23.5646 6.35202ZM16.6667 17.5222V21.4995H4.44444V8.99707H13.2215C13.3437 8.99707 13.4583 8.94628 13.5462 8.86032L15.074 7.29752C15.3642 7.00059 15.158 6.49658 14.7493 6.49658H3.83333C2.82118 6.49658 2 7.33659 2 8.37195V22.1246C2 23.16 2.82118 24 3.83333 24H17.2778C18.2899 24 19.1111 23.16 19.1111 22.1246V15.9594C19.1111 15.5413 18.6184 15.3342 18.3281 15.6273L16.8003 17.1901C16.7163 17.2799 16.6667 17.3971 16.6667 17.5222Z" fill="white"/>
</svg>
